<svg id="SvgjsSvg1012" width="288" height="288" xmlns="http://www.w3.org/2000/svg" version="1.1" xmlns:xlink="http://www.w3.org/1999/xlink" xmlns:svgjs="http://svgjs.com/svgjs"><defs id="SvgjsDefs1013"></defs><g id="SvgjsG1014"><svg xmlns="http://www.w3.org/2000/svg" width="288" height="288" enable-background="new 0 0 24 24" viewBox="0 0 24 24"><path d="m17 24c-3.394 0-7-1.052-7-3 0-.276.224-.5.5-.5s.5.224.5.5c0 .835 2.282 2 6 2s6-1.165 6-2c0-.276.224-.5.5-.5s.5.224.5.5c0 1.948-3.606 3-7 3z" fill="#ffffff" class="color000 svgShape"></path><path d="m17 21c-3.394 0-7-1.052-7-3 0-.276.224-.5.5-.5s.5.224.5.5c0 .835 2.282 2 6 2s6-1.165 6-2c0-.276.224-.5.5-.5s.5.224.5.5c0 1.948-3.606 3-7 3z" fill="#ffffff" class="color000 svgShape"></path><path d="m17 18c-3.394 0-7-1.052-7-3s3.606-3 7-3 7 1.052 7 3-3.606 3-7 3zm0-5c-3.718 0-6 1.165-6 2s2.282 2 6 2 6-1.165 6-2-2.282-2-6-2z" fill="#ffffff" class="color000 svgShape"></path><path d="M23.5 21.5c-.276 0-.5-.224-.5-.5v-6c0-.276.224-.5.5-.5s.5.224.5.5v6c0 .276-.224.5-.5.5zM10.5 21.5c-.276 0-.5-.224-.5-.5v-6c0-.276.224-.5.5-.5s.5.224.5.5v6c0 .276-.224.5-.5.5zM7 12c-3.394 0-7-1.052-7-3 0-.276.224-.5.5-.5s.5.224.5.5c0 .835 2.282 2 6 2s6-1.165 6-2c0-.276.224-.5.5-.5s.5.224.5.5c0 1.948-3.606 3-7 3z" fill="#ffffff" class="color000 svgShape"></path><path d="M7 9c-3.394 0-7-1.052-7-3 0-.276.224-.5.5-.5s.5.224.5.5c0 .835 2.282 2 6 2s6-1.165 6-2c0-.276.224-.5.5-.5s.5.224.5.5c0 1.948-3.606 3-7 3zM7 18c-3.394 0-7-1.052-7-3 0-.276.224-.5.5-.5s.5.224.5.5c0 .835 2.282 2 6 2 .544 0 1.018-.022 1.447-.067.271-.03.521.17.55.444s-.17.521-.444.55c-.466.05-.974.073-1.553.073zM7 21c-3.394 0-7-1.052-7-3 0-.276.224-.5.5-.5s.5.224.5.5c0 .835 2.282 2 6 2 .544 0 1.018-.022 1.447-.067.271-.035.521.17.55.444s-.17.521-.444.55c-.466.05-.974.073-1.553.073zM7 15c-3.394 0-7-1.052-7-3 0-.276.224-.5.5-.5s.5.224.5.5c0 .835 2.282 2 6 2 .544 0 1.018-.022 1.447-.067.271-.032.521.169.55.444.029.274-.17.521-.444.55-.466.05-.974.073-1.553.073z" fill="#ffffff" class="color000 svgShape"></path><path d="m7 6c-3.394 0-7-1.052-7-3s3.606-3 7-3 7 1.052 7 3-3.606 3-7 3zm0-5c-3.718 0-6 1.165-6 2s2.282 2 6 2 6-1.165 6-2-2.282-2-6-2z" fill="#ffffff" class="color000 svgShape"></path><path d="M.5 18.5c-.276 0-.5-.224-.5-.5v-15c0-.276.224-.5.5-.5s.5.224.5.5v15c0 .276-.224.5-.5.5zM13.5 9.5c-.276 0-.5-.224-.5-.5v-6c0-.276.224-.5.5-.5s.5.224.5.5v6c0 .276-.224.5-.5.5z" fill="#ffffff" class="color000 svgShape"></path></svg></g></svg>