<?xml version="1.0"?>
<svg xmlns="http://www.w3.org/2000/svg" xmlns:xlink="http://www.w3.org/1999/xlink" xmlns:svgjs="http://svgjs.com/svgjs" version="1.1" width="512" height="512" x="0" y="0" viewBox="0 0 512 512" style="enable-background:new 0 0 512 512" xml:space="preserve" class=""><g><g xmlns="http://www.w3.org/2000/svg"><g id="XMLID_224_"><g id="XMLID_225_"><g id="XMLID_226_"><g id="XMLID_227_"><g id="XMLID_228_"><g id="XMLID_229_"><g id="XMLID_230_"><g id="XMLID_231_"><g id="XMLID_232_"><g id="XMLID_233_"><g id="XMLID_234_"><g id="XMLID_235_"><g id="XMLID_236_"><g id="XMLID_237_"><circle id="XMLID_238_" cx="256" cy="256" fill="#00314f" r="256" data-original="#ff90c2" style="" class=""/></g></g></g></g></g></g></g></g></g></g></g></g></g></g><path d="m512 256c0-22.027-2.784-43.404-8.016-63.8l-66.93-66.93-339.446 294.122 80.538 80.538c24.552 7.83 50.706 12.07 77.854 12.07 141.385 0 256-114.615 256-256z" fill="#00314f" data-original="#ff73af" style="" class=""/><g><g><path d="m143.239 280.208-23.414 71.419-9.786 55.334 55.334-9.785 71.419-23.415-32.292-61.261z" fill="#ffffff" data-original="#ffffff" style="" class=""/><path d="m236.788 373.762-71.411 23.413-55.338 9.786 94.462-94.462z" fill="#ededed" data-original="#ededed" style="" class=""/><path d="m193.613 158.595h132.304v197.281h-132.304z" fill="#ff8635" transform="matrix(.707 .707 -.707 .707 257.976 -108.339)" data-original="#ffe670" style="" class=""/><g><path d="m184.509 247.551h197.28v66.15h-197.28z" fill="#ff8635" transform="matrix(.707 -.707 .707 .707 -115.5 282.41)" data-original="#ffd400" style="" class=""/></g></g><path d="m165.373 397.176-45.548-45.549-22.217 67.765z" fill="#ff8635" data-original="#4a5be5" style="" class=""/><path d="m165.377 397.175-67.769 22.217 44.993-44.993z" fill="#ff8635" data-original="#283ee1" style="" class=""/><path d="m398.434 212.119-93.553-93.553 35.214-35.214c15.199-15.199 39.842-15.199 55.041 0l38.512 38.512c15.199 15.199 15.199 39.842 0 55.041z" fill="#ff8635" data-original="#00f8fe" style="" class=""/><g><path d="m433.647 176.904-35.214 35.214-46.775-46.775 62.734-62.734 19.254 19.255c15.203 15.201 15.203 39.837.001 55.04z" fill="#ff8635" data-original="#00d9e0" style="" class=""/></g><path d="m274.655 154.013h132.304v44.36h-132.304z" fill="#ffffff" transform="matrix(.707 .707 -.707 .707 224.407 -189.382)" data-original="#ffffff" style="" class=""/><path d="m342.018 166.502h44.36v66.15h-44.36z" fill="#ededed" transform="matrix(.707 -.707 .707 .707 -34.451 315.982)" data-original="#ededed" style="" class=""/></g></g></g></svg>
