<svg id="SvgjsSvg1023" width="288" height="288" xmlns="http://www.w3.org/2000/svg" version="1.1" xmlns:xlink="http://www.w3.org/1999/xlink" xmlns:svgjs="http://svgjs.com/svgjs"><defs id="SvgjsDefs1024"></defs><g id="SvgjsG1025"><svg xmlns="http://www.w3.org/2000/svg" width="288" height="288" viewBox="0 0 64 64"><path d="M13,62h4a1,1,0,0,0,1-1v-.9L36.9,62c.034,0,.067.005.1.005a1,1,0,0,0,.447-.1l17.824-8.913a3.459,3.459,0,0,0,1.655-4.353A3.269,3.269,0,0,0,55.057,46.7a4.245,4.245,0,0,0-3.451.378l-9.921,3.608A3,3,0,0,0,39,49H18V48a1,1,0,0,0-1-1H13a1,1,0,0,0-1,1v1H8a1,1,0,0,0-1,1v9a1,1,0,0,0,1,1h4v1A1,1,0,0,0,13,62Zm5-11H39a1,1,0,0,1,0,2H29v2H39a3,3,0,0,0,2.9-2.263l10.445-3.8a.969.969,0,0,0,.105-.044,2.532,2.532,0,0,1,1.9-.325,1.317,1.317,0,0,1,.723.8,1.447,1.447,0,0,1-.693,1.822L36.812,59.977,18,58.1Zm-4-2h2V60H14ZM9,58V51h3v7Z" fill="#fffefe" class="color000 svgShape"></path><path d="M24,22v5H23a1,1,0,0,0-1,1v5H21a1,1,0,0,0-1,1v6a1,1,0,0,0,1,1h1v5a1,1,0,0,0,1,1H43a1,1,0,0,0,1-1V40a1,1,0,0,0-1-1H42V35h1a1,1,0,0,0,1-1V29h1a1,1,0,0,0,1-1V22a1,1,0,0,0-1-1H25A1,1,0,0,0,24,22ZM22,39V35h2v2h2V35h2v2h2V35h2v2h2V35h2v2h2V35h2v4Zm20,6H24V41h2v2h2V41h2v2h2V41h2v2h2V41h2v2h2V41h2ZM26,23h2v2h2V23h2v2h2V23h2v2h2V23h2v2h2V23h2v4H26Zm2,8V29h2v2h2V29h2v2h2V29h2v2h2V29h2v4H24V29h2v2Z" fill="#fffefe" class="color000 svgShape"></path><path d="M28.707,7.293a1,1,0,0,0-1.414,0l-12,12a1,1,0,0,0,0,1.414l3,3a1,1,0,0,0,1.414,0L28,15.414l5.293,5.293a1,1,0,0,0,1.414,0L45,10.414l2.293,2.293A1,1,0,0,0,49,12V3a1,1,0,0,0-1-1H39a1,1,0,0,0-.707,1.707L40.586,6,34,12.586Zm14-.586a1,1,0,0,0,0-1.414L41.414,4H47V9.586L45.707,8.293a1,1,0,0,0-1.414,0L34,18.586l-5.293-5.293a1,1,0,0,0-1.414,0L19,21.586,17.414,20,28,9.414l5.293,5.293a1,1,0,0,0,1.414,0Z" fill="#fffefe" class="color000 svgShape"></path></svg></g></svg>